<svg width="60" height="60" viewBox="0 0 60 60" fill="none" xmlns="http://www.w3.org/2000/svg">
<path d="M56.3771 32.2223C55.3265 30.5063 53.1949 29.7677 51.3393 30.4528L35.4622 35.5332C35.6738 35.1023 35.8309 34.6365 35.9225 34.1412C36.2902 32.1612 35.0313 30.0437 33.1156 29.4208L26.9454 27.4157C26.009 27.1115 25.0061 27.0752 24.0502 27.311L15.6862 29.3761V28.2819C15.6862 27.3557 14.9334 26.6019 14.0073 26.6019H4.6789C3.75272 26.6019 2.9989 27.3547 2.9989 28.2819V47.8179C2.9989 48.7441 3.75163 49.4968 4.6789 49.4968H14.0073C14.4525 49.4966 14.8793 49.3196 15.1941 49.0048C15.5089 48.69 15.6859 48.2631 15.6862 47.8179V46.5492L31.1858 50.9652C32.0979 51.2256 33.0554 51.2858 33.9929 51.1417C34.9303 50.9977 35.8256 50.6528 36.6175 50.1307L54.96 38.0488C55.4369 37.7605 55.8521 37.3807 56.1817 36.9313C56.5113 36.4819 56.7487 35.9718 56.8804 35.4303C57.0121 34.8888 57.0355 34.3266 56.9491 33.776C56.8627 33.2255 56.6683 32.6974 56.3771 32.2223ZM4.63527 47.8179L4.6789 28.2394H14.0073C14.0186 28.2397 14.0295 28.2444 14.0374 28.2525C14.0454 28.2607 14.0498 28.2716 14.0498 28.283L14.0073 47.8605L4.63527 47.8179ZM54.0862 36.6656L35.7164 48.7637C35.1213 49.1562 34.4484 49.4154 33.7438 49.5236C33.0393 49.6319 32.3196 49.5867 31.6342 49.391L15.6862 44.8474V31.0616L24.4418 28.8994C25.1013 28.7369 25.7931 28.7618 26.4393 28.9714L32.6084 30.9765C33.7516 31.3474 34.5316 32.6597 34.3124 33.8423C34.1383 34.782 33.6097 35.6189 32.8358 36.1798C32.062 36.7406 31.1021 36.9825 30.1549 36.8554L26.4153 36.3557C26.3087 36.3406 26.2002 36.3468 26.096 36.374C25.9918 36.4013 25.8942 36.449 25.8087 36.5144C25.7232 36.5798 25.6515 36.6616 25.598 36.755C25.5444 36.8483 25.51 36.9515 25.4967 37.0583C25.4825 37.1647 25.4893 37.273 25.5169 37.3768C25.5445 37.4806 25.5923 37.5779 25.6576 37.6632C25.7228 37.7485 25.8042 37.8201 25.8972 37.874C25.9901 37.9278 26.0928 37.9627 26.1993 37.9768L29.9389 38.4765C31.9604 38.7448 31.6756 38.327 51.8705 31.9987C52.4784 31.7731 53.1486 31.7834 53.7492 32.0276C54.3498 32.2717 54.8371 32.732 55.1152 33.3177C55.3932 33.9033 55.4418 34.5719 55.2513 35.1916C55.0608 35.8113 54.6452 36.3372 54.0862 36.6656Z" fill="#E0E0E0"/>
<path d="M9.00326 39.7986C8.24414 39.7995 7.51638 40.1015 6.97971 40.6384C6.44303 41.1752 6.14129 41.9031 6.14072 42.6622C6.14072 44.2408 7.42472 45.5248 9.00326 45.5248C10.5818 45.5248 11.8669 44.2408 11.8669 42.6622C11.8663 41.9029 11.5644 41.1749 11.0275 40.638C10.4906 40.1011 9.76257 39.7992 9.00326 39.7986ZM9.00326 43.8884C8.76048 43.8884 8.52316 43.8164 8.32131 43.6815C8.11946 43.5466 7.96216 43.3549 7.86931 43.1306C7.77645 42.9062 7.75221 42.6594 7.79965 42.4213C7.84709 42.1832 7.96409 41.9645 8.13584 41.7929C8.30758 41.6214 8.52636 41.5046 8.7645 41.4573C9.00264 41.4101 9.24944 41.4346 9.47368 41.5276C9.69791 41.6207 9.88951 41.7781 10.0242 41.9801C10.159 42.1821 10.2308 42.4195 10.2305 42.6622C10.226 42.9862 10.0952 43.2957 9.86601 43.5247C9.6368 43.7537 9.32725 43.8842 9.00326 43.8884ZM33.8225 22.5088L33.2367 25.9201C33.1582 26.3804 33.3436 26.8364 33.7211 27.1102C34.0974 27.3851 34.5884 27.4201 35.0029 27.203L38.0662 25.5917L41.1305 27.203C41.5451 27.4222 42.0371 27.383 42.4113 27.1113C42.7898 26.8375 42.9753 26.3804 42.8956 25.9201L42.3098 22.5088L44.7883 20.0924C45.1233 19.7662 45.2411 19.2884 45.096 18.8444C44.9509 18.4004 44.5745 18.0841 44.1142 18.0164L40.6887 17.5179L39.1571 14.4142C38.9509 13.9953 38.532 13.7357 38.0662 13.7357C37.6004 13.7357 37.1814 13.9953 36.9753 14.4142L35.4436 17.5179L32.0193 18.0164C31.5578 18.083 31.1804 18.4004 31.0364 18.8444C30.8924 19.2884 31.0102 19.7662 31.344 20.0924L33.8225 22.5088ZM36.1047 19.0757C36.2359 19.0566 36.3604 19.0059 36.4676 18.928C36.5748 18.8501 36.6614 18.7473 36.72 18.6284L38.0662 15.9001L39.4123 18.6284C39.5313 18.8695 39.7614 19.0375 40.0276 19.0757L43.0385 19.5131L40.86 21.6361C40.7649 21.7286 40.6938 21.843 40.6527 21.9691C40.6117 22.0953 40.6019 22.2296 40.6243 22.3604L41.1393 25.3582L38.4469 23.9422C38.3293 23.881 38.1987 23.849 38.0662 23.849C37.9336 23.849 37.803 23.881 37.6854 23.9422L34.9931 25.3582L35.508 22.3604C35.5306 22.2296 35.5209 22.0953 35.4799 21.9691C35.4388 21.8428 35.3676 21.7285 35.2724 21.6361L33.0938 19.5131L36.1047 19.0757ZM47.7753 15.5553L47.3618 17.9662C47.3258 18.1711 47.3481 18.382 47.426 18.5749C47.5039 18.7677 47.6344 18.9349 47.8026 19.0573C47.9708 19.1797 48.17 19.2524 48.3775 19.2673C48.585 19.2821 48.7925 19.2384 48.9763 19.1411L51.1418 18.0022L53.3094 19.1422C53.6923 19.3419 54.1396 19.3048 54.4822 19.055C54.8269 18.8041 54.996 18.3873 54.924 17.9673L54.5105 15.5553L56.2636 13.847C56.5691 13.5491 56.6771 13.1117 56.5451 12.7059C56.4131 12.3001 56.0683 12.0099 55.6462 11.9488L53.2243 11.5964L52.1411 9.40151C51.7647 8.63679 50.5233 8.6357 50.1447 9.40151L49.0614 11.5964L46.6396 11.9488C46.2174 12.0099 45.8727 12.3001 45.7407 12.7059C45.6087 13.1117 45.7167 13.5492 46.0222 13.8481L47.7753 15.5553ZM49.7225 13.1542C49.8537 13.1352 49.9782 13.0845 50.0854 13.0066C50.1926 12.9286 50.2792 12.8258 50.3378 12.707L51.1418 11.0772L51.9469 12.707C52.0658 12.9481 52.296 13.1161 52.5622 13.1542L54.36 13.4161L53.0585 14.6848C52.9635 14.7774 52.8923 14.8917 52.8513 15.0179C52.8102 15.1441 52.8005 15.2784 52.8229 15.4092L53.1305 17.2004L51.5214 16.355C51.4039 16.2936 51.2733 16.2616 51.1407 16.2616C51.0081 16.2616 50.8775 16.2936 50.76 16.355L49.152 17.2004L49.4596 15.4092C49.4822 15.2784 49.4726 15.144 49.4315 15.0178C49.3904 14.8916 49.3192 14.7773 49.224 14.6848L47.9225 13.4161L49.7225 13.1542ZM21.6229 15.5553L21.2094 17.9684C21.1743 18.1732 21.1971 18.3837 21.2754 18.5762C21.3537 18.7686 21.4843 18.9353 21.6525 19.0574C21.8206 19.1794 22.0196 19.252 22.2268 19.2668C22.434 19.2816 22.6413 19.2381 22.8251 19.1411L24.9905 18.0022L27.1571 19.1411C27.5334 19.3386 27.9818 19.3081 28.3287 19.0561C28.6734 18.8062 28.8436 18.3884 28.7716 17.9673L28.3582 15.5553L30.1113 13.847C30.4167 13.5491 30.5236 13.1117 30.3916 12.7059C30.2596 12.3001 29.9149 12.011 29.4938 11.9499L27.072 11.5975L25.9887 9.40261V9.40151C25.8971 9.21519 25.7549 9.05839 25.5784 8.94902C25.4019 8.83965 25.1982 8.78211 24.9905 8.78297H24.9894C24.5629 8.78297 24.1811 9.02079 23.9924 9.40261L22.9091 11.5964L20.4873 11.9488C20.2817 11.9778 20.0885 12.064 19.9297 12.1977C19.7709 12.3314 19.653 12.5072 19.5894 12.7048C19.4574 13.1106 19.5644 13.5481 19.8709 13.847L21.6229 15.5553ZM23.5702 13.1542C23.7013 13.1352 23.8258 13.0845 23.933 13.0066C24.0402 12.9286 24.1268 12.8258 24.1854 12.707L24.9894 11.0772L25.7934 12.707C25.9124 12.9481 26.1425 13.1161 26.4087 13.1542L28.2076 13.4161L26.9062 14.6848C26.8111 14.7774 26.74 14.8917 26.6989 15.0179C26.6579 15.1441 26.6481 15.2784 26.6705 15.4092L26.9782 17.2004L25.3691 16.355C25.2516 16.2936 25.1209 16.2616 24.9884 16.2616C24.8558 16.2616 24.7251 16.2936 24.6076 16.355L22.9985 17.2004L23.3062 15.4092C23.3288 15.2784 23.3191 15.144 23.2781 15.0178C23.237 14.8916 23.1658 14.7773 23.0705 14.6848L21.7691 13.4161L23.5702 13.1542Z" fill="#E0E0E0"/>
</svg>
