<svg width="55" height="55" viewBox="0 0 55 55" fill="none" xmlns="http://www.w3.org/2000/svg">
<g clip-path="url(#clip0_69_141)">
<path d="M1.15393 36.6074C0.835914 36.6456 0.542889 36.7989 0.330261 37.0384C0.117634 37.2779 0.000140688 37.5871 0 37.9074V41.7998C0.000326652 42.12 0.117873 42.429 0.330446 42.6685C0.543019 42.9079 0.835909 43.0613 1.15382 43.0996L3.70133 43.4041C3.9189 44.1054 4.20079 44.785 4.54341 45.4344L2.95679 47.4519C2.7589 47.7037 2.66014 48.0193 2.67918 48.339C2.69822 48.6588 2.83375 48.9604 3.06013 49.187L5.81249 51.9393C6.03905 52.1657 6.34071 52.3012 6.66042 52.3203C6.98013 52.3393 7.29574 52.2406 7.54757 52.0427L9.56581 50.4561C10.2152 50.7986 10.8948 51.0805 11.5961 51.298L11.9007 53.8462C11.939 54.164 12.0923 54.4569 12.3317 54.6694C12.5711 54.882 12.8801 54.9996 13.2002 55H17.0926C17.4129 54.9997 17.7219 54.8821 17.9613 54.6696C18.2008 54.457 18.3542 54.1641 18.3925 53.8462L18.697 51.2988C19.3982 51.0811 20.0778 50.7992 20.7273 50.4567L22.7448 52.0432C22.9966 52.2411 23.3122 52.3398 23.6319 52.3208C23.9516 52.3017 24.2533 52.1662 24.4798 51.9399L27.2322 49.1875C27.4584 48.9609 27.5939 48.6592 27.6129 48.3396C27.6319 48.0199 27.5333 47.7043 27.3355 47.4524L25.749 45.4342C26.0916 44.7848 26.3735 44.1052 26.591 43.4039L29.1392 43.0993C29.457 43.061 29.7498 42.9077 29.9624 42.6683C30.175 42.4289 30.2926 42.1199 30.293 41.7998V37.9074C30.2928 37.5871 30.1753 37.278 29.9627 37.0385C29.7501 36.799 29.4571 36.6457 29.1392 36.6075L26.5916 36.3029C26.374 35.6017 26.0921 34.922 25.7496 34.2726L27.3361 32.2551C27.534 32.0033 27.6328 31.6877 27.6137 31.368C27.5947 31.0483 27.4592 30.7466 27.2328 30.5201L24.4805 27.7677C24.2538 27.5415 23.9522 27.406 23.6325 27.387C23.3129 27.368 22.9973 27.4666 22.7454 27.6644L20.7272 29.251C20.0778 28.9084 19.3981 28.6266 18.6969 28.409L18.3922 25.8608C18.3539 25.543 18.2006 25.2502 17.9612 25.0376C17.7218 24.825 17.4129 24.7074 17.0928 24.707H13.2002C12.88 24.7074 12.571 24.8249 12.3315 25.0375C12.0921 25.2501 11.9387 25.5429 11.9004 25.8608L11.5958 28.409C10.8945 28.6265 10.2149 28.9083 9.56549 29.2509L7.54757 27.6638C7.29567 27.4661 6.9801 27.3674 6.66043 27.3865C6.34077 27.4055 6.03913 27.5409 5.81249 27.7672L3.06023 30.5195C2.83382 30.7461 2.69826 31.0477 2.67919 31.3674C2.66013 31.6871 2.75889 32.0028 2.95679 32.2546L4.54395 34.2726C4.20139 34.922 3.91953 35.6017 3.70197 36.3029L1.15393 36.6074ZM4.8241 37.0605C5.06321 36.1759 5.41572 35.3259 5.87286 34.5316C5.93698 34.4202 5.96629 34.2921 5.95703 34.1638C5.94776 34.0355 5.90034 33.913 5.82087 33.8119L3.96999 31.4582C3.96822 31.4564 3.96684 31.4543 3.96596 31.4519C3.96507 31.4495 3.9647 31.447 3.96486 31.4445C3.96502 31.442 3.96572 31.4396 3.9669 31.4373C3.96808 31.4351 3.96972 31.4332 3.97171 31.4316L6.72461 28.6786C6.72617 28.6767 6.72814 28.675 6.73038 28.6739C6.73261 28.6727 6.73507 28.672 6.73759 28.6719C6.74011 28.6717 6.74263 28.6721 6.74498 28.673C6.74734 28.6739 6.74947 28.6753 6.75125 28.6771L9.10486 30.528C9.20595 30.6075 9.32849 30.6549 9.45675 30.6642C9.58501 30.6735 9.71311 30.6442 9.82459 30.5801C10.6189 30.123 11.4689 29.7705 12.3535 29.5313C12.4776 29.4978 12.5889 29.428 12.673 29.3307C12.7571 29.2335 12.8103 29.1133 12.8255 28.9856L13.1808 26.0139C13.1808 26.0114 13.1813 26.0089 13.1824 26.0066C13.1834 26.0043 13.1849 26.0023 13.1868 26.0006C13.1887 25.9989 13.1909 25.9976 13.1933 25.9969C13.1957 25.9961 13.1982 25.9958 13.2008 25.9961H17.0933C17.0958 25.9958 17.0983 25.9961 17.1007 25.9969C17.1031 25.9976 17.1054 25.9989 17.1072 26.0006C17.1091 26.0023 17.1106 26.0043 17.1117 26.0066C17.1127 26.0089 17.1133 26.0114 17.1133 26.0139L17.4685 28.9856C17.4838 29.1133 17.5369 29.2335 17.621 29.3307C17.7051 29.428 17.8164 29.4978 17.9405 29.5313C18.8251 29.7705 19.6751 30.1231 20.4692 30.5802C20.5807 30.6443 20.7088 30.6736 20.8371 30.6643C20.9653 30.655 21.0879 30.6076 21.189 30.5281L23.5428 28.6771C23.5446 28.6753 23.5467 28.6739 23.5491 28.673C23.5514 28.6721 23.554 28.6717 23.5565 28.6719C23.559 28.672 23.5615 28.6727 23.5637 28.6739C23.5659 28.6751 23.5679 28.6767 23.5694 28.6787L26.3213 31.4316C26.3232 31.4332 26.3248 31.4352 26.326 31.4374C26.3272 31.4396 26.3279 31.4421 26.328 31.4446C26.3282 31.4471 26.3278 31.4496 26.3269 31.452C26.326 31.4543 26.3246 31.4565 26.3229 31.4583L24.4724 33.8108C24.3929 33.9119 24.3455 34.0345 24.3363 34.1627C24.327 34.291 24.3563 34.4191 24.4204 34.5305C24.8778 35.3251 25.2305 36.1755 25.4697 37.0605C25.5032 37.1847 25.5731 37.296 25.6703 37.3801C25.7676 37.4642 25.8878 37.5173 26.0154 37.5326L28.9865 37.8878C28.989 37.8878 28.9915 37.8883 28.9938 37.8894C28.9961 37.8904 28.9982 37.8919 28.9999 37.8938C29.0015 37.8957 29.0028 37.8979 29.0035 37.9003C29.0043 37.9027 29.0045 37.9053 29.0042 37.9078V41.8002C29.0045 41.8027 29.0042 41.8053 29.0035 41.8077C29.0027 41.8101 29.0014 41.8123 28.9998 41.8142C28.9981 41.816 28.996 41.8176 28.9937 41.8186C28.9914 41.8196 28.9889 41.8202 28.9864 41.8202L26.0147 42.1755C25.887 42.1908 25.7669 42.2439 25.6696 42.328C25.5724 42.4121 25.5025 42.5233 25.469 42.6475C25.2298 43.532 24.8773 44.382 24.4201 45.1762C24.356 45.2876 24.3267 45.4157 24.336 45.544C24.3453 45.6723 24.3927 45.7948 24.4722 45.8959L26.3232 48.2496C26.325 48.2514 26.3263 48.2536 26.3272 48.2559C26.3281 48.2583 26.3285 48.2608 26.3283 48.2633C26.3282 48.2659 26.3275 48.2683 26.3263 48.2706C26.3252 48.2728 26.3236 48.2748 26.3216 48.2764L23.5693 51.0286C23.5678 51.0306 23.5658 51.0323 23.5636 51.0334C23.5613 51.0346 23.5588 51.0353 23.5563 51.0355C23.5538 51.0356 23.5513 51.0352 23.5489 51.0343C23.5465 51.0334 23.5444 51.032 23.5426 51.0302L21.19 49.1799C21.0889 49.1004 20.9664 49.053 20.8381 49.0437C20.7099 49.0345 20.5818 49.0638 20.4703 49.1279C19.6754 49.5852 18.8248 49.9377 17.9395 50.1768C17.8153 50.2103 17.704 50.2801 17.6199 50.3774C17.5358 50.4746 17.4827 50.5948 17.4674 50.7225L17.1123 53.6931C17.1123 53.6956 17.1118 53.6982 17.1107 53.7005C17.1097 53.7028 17.1082 53.7049 17.1063 53.7065C17.1044 53.7082 17.1021 53.7095 17.0997 53.7103C17.0973 53.711 17.0947 53.7112 17.0922 53.7109H13.2002C13.1977 53.7112 13.1952 53.711 13.1927 53.7102C13.1903 53.7094 13.1881 53.7082 13.1862 53.7065C13.1843 53.7048 13.1828 53.7028 13.1818 53.7004C13.1808 53.6981 13.1802 53.6956 13.1802 53.6931L12.825 50.7214C12.8098 50.5938 12.7567 50.4737 12.6727 50.3764C12.5887 50.2792 12.4775 50.2093 12.3535 50.1757C11.4689 49.9365 10.619 49.584 9.8248 49.1269C9.71333 49.0628 9.58523 49.0335 9.45697 49.0428C9.32871 49.0521 9.20616 49.0995 9.10508 49.179L6.75136 51.0299C6.74956 51.0317 6.74742 51.0331 6.74505 51.034C6.74269 51.0348 6.74017 51.0352 6.73765 51.0351C6.73513 51.035 6.73267 51.0343 6.73042 51.0331C6.72817 51.032 6.72619 51.0304 6.72461 51.0284L3.9716 48.2759C3.96962 48.2744 3.968 48.2724 3.96684 48.2702C3.96568 48.2679 3.965 48.2655 3.96486 48.2629C3.96472 48.2604 3.96511 48.2579 3.96601 48.2556C3.96692 48.2532 3.96831 48.2511 3.9701 48.2493L5.82055 45.8967C5.90002 45.7957 5.94744 45.6731 5.95671 45.5448C5.96597 45.4166 5.93666 45.2885 5.87254 45.177C5.41507 44.3823 5.06238 43.5317 4.82324 42.6465C4.78972 42.5224 4.71985 42.4111 4.6226 42.327C4.52536 42.2429 4.40519 42.1898 4.27754 42.1746L1.30689 41.8193C1.30437 41.8193 1.30187 41.8188 1.29956 41.8178C1.29725 41.8167 1.29518 41.8152 1.2935 41.8133C1.29182 41.8115 1.29055 41.8092 1.28979 41.8068C1.28902 41.8044 1.28877 41.8019 1.28906 41.7994V37.9074C1.28877 37.9048 1.28902 37.9023 1.28979 37.8999C1.29055 37.8975 1.29182 37.8953 1.2935 37.8934C1.29518 37.8915 1.29725 37.89 1.29956 37.8889C1.30187 37.8879 1.30437 37.8874 1.30689 37.8874L4.2784 37.532C4.40599 37.5168 4.52612 37.4638 4.62336 37.3797C4.7206 37.2957 4.7905 37.1846 4.8241 37.0605ZM15.1465 46.8775C16.5357 46.8775 17.8937 46.4656 19.0488 45.6938C20.2039 44.9219 21.1042 43.8249 21.6358 42.5415C22.1674 41.258 22.3065 39.8457 22.0355 38.4832C21.7645 37.1207 21.0955 35.8691 20.1132 34.8868C19.1309 33.9045 17.8793 33.2355 16.5168 32.9645C15.1543 32.6935 13.742 32.8326 12.4585 33.3642C11.1751 33.8958 10.0781 34.7961 9.30625 35.9512C8.53444 37.1063 8.12249 38.4643 8.12249 39.8535C8.12462 41.7157 8.86533 43.5011 10.1821 44.8179C11.4989 46.1347 13.2843 46.8754 15.1465 46.8775ZM15.1465 34.1186C16.2807 34.1186 17.3895 34.4549 18.3326 35.0851C19.2757 35.7153 20.0108 36.6109 20.4449 37.6589C20.8789 38.7068 20.9925 39.8599 20.7712 40.9723C20.5499 42.0848 20.0037 43.1067 19.2017 43.9087C18.3996 44.7108 17.3778 45.257 16.2653 45.4783C15.1528 45.6995 13.9997 45.586 12.9518 45.1519C11.9039 44.7178 11.0082 43.9828 10.3781 43.0397C9.7479 42.0966 9.41155 40.9878 9.41155 39.8535C9.41329 38.333 10.0181 36.8754 11.0932 35.8002C12.1683 34.7251 13.626 34.1203 15.1465 34.1186ZM39.8535 0C31.5017 0 24.707 6.79465 24.707 15.1465C24.707 23.4983 31.5017 30.293 39.8535 30.293C48.2054 30.293 55 23.4983 55 15.1465C55 6.79465 48.2054 0 39.8535 0ZM31.2674 26.0155C31.4899 23.8933 32.4904 21.9287 34.0759 20.5007C35.6615 19.0727 37.7197 18.2825 39.8535 18.2825C41.9873 18.2825 44.0456 19.0727 45.6311 20.5007C47.2166 21.9287 48.2172 23.8933 48.4396 26.0155C45.9962 27.9508 42.9706 29.0039 39.8535 29.0039C36.7365 29.0039 33.7109 27.9508 31.2674 26.0155ZM49.5885 24.9983C49.2411 23.2561 48.4338 21.6386 47.2505 20.3136C46.0672 18.9886 44.5509 18.0044 42.859 17.4629C43.9839 16.8031 44.8605 15.7914 45.3534 14.5839C45.8463 13.3764 45.9281 12.0403 45.5862 10.7817C45.2443 9.5231 44.4978 8.41199 43.4617 7.61981C42.4257 6.82764 41.1577 6.39844 39.8535 6.39844C38.5493 6.39844 37.2814 6.82764 36.2453 7.61981C35.2092 8.41199 34.4627 9.5231 34.1208 10.7817C33.7789 12.0403 33.8608 13.3764 34.3536 14.5839C34.8465 15.7914 35.7231 16.8031 36.8481 17.4629C35.1561 18.0044 33.6398 18.9886 32.4565 20.3136C31.2732 21.6386 30.466 23.2561 30.1185 24.9983C28.1626 23.0675 26.8249 20.5987 26.2757 17.9058C25.7264 15.2128 25.9903 12.4174 27.0338 9.8748C28.0774 7.33223 29.8534 5.15739 32.1361 3.62677C34.4188 2.09615 37.1051 1.27889 39.8535 1.27889C42.6019 1.27889 45.2882 2.09615 47.5709 3.62677C49.8537 5.15739 51.6297 7.33223 52.6732 9.8748C53.7167 12.4174 53.9807 15.2128 53.4314 17.9058C52.8821 20.5987 51.5445 23.0675 49.5885 24.9983ZM39.8535 16.9933C38.9336 16.9933 38.0343 16.7205 37.2694 16.2094C36.5044 15.6983 35.9083 14.9718 35.5562 14.1219C35.2042 13.272 35.112 12.3368 35.2915 11.4345C35.471 10.5322 35.914 9.70341 36.5645 9.0529C37.215 8.4024 38.0438 7.9594 38.9461 7.77992C39.8484 7.60045 40.7836 7.69256 41.6335 8.04461C42.4834 8.39666 43.2099 8.99284 43.721 9.75775C44.2321 10.5227 44.5049 11.422 44.5049 12.3419C44.5034 13.5751 44.0129 14.7573 43.1409 15.6293C42.2689 16.5013 41.0867 16.9918 39.8535 16.9933ZM10.239 7.44605H22.628L21.2933 6.23219C21.1668 6.11717 21.0912 5.95663 21.0831 5.78588C21.075 5.61512 21.1351 5.44815 21.2501 5.32168C21.3651 5.19521 21.5256 5.11961 21.6964 5.11152C21.8672 5.10342 22.0341 5.16348 22.1606 5.2785L24.728 7.61385C24.7944 7.67425 24.8474 7.74787 24.8838 7.82998C24.9201 7.91208 24.9388 8.00086 24.9388 8.09064C24.9388 8.18041 24.9201 8.2692 24.8838 8.3513C24.8474 8.43341 24.7944 8.50702 24.728 8.56743L22.1611 10.9033C22.0344 11.0167 21.868 11.0754 21.6982 11.0667C21.5284 11.058 21.3689 10.9825 21.2545 10.8567C21.1401 10.7309 21.08 10.565 21.0874 10.3951C21.0948 10.2252 21.1689 10.0652 21.2938 9.94974L22.6286 8.73587H10.239C9.8403 8.73632 9.45804 8.89492 9.1761 9.17686C8.89417 9.45879 8.73557 9.84105 8.73512 10.2398V25.746C8.73512 25.917 8.66721 26.0809 8.54634 26.2018C8.42547 26.3226 8.26153 26.3905 8.09059 26.3905C7.91965 26.3905 7.75571 26.3226 7.63483 26.2018C7.51396 26.0809 7.44605 25.917 7.44605 25.746V10.239C7.44688 9.49854 7.7414 8.78861 8.26501 8.26501C8.78861 7.7414 9.49854 7.44688 10.239 7.44605ZM32.2555 45.051L30.9206 46.2649H44.761C45.1597 46.2644 45.542 46.1058 45.8239 45.8239C46.1058 45.542 46.2644 45.1597 46.2649 44.761V30.7053C46.2649 30.5343 46.3328 30.3704 46.4537 30.2495C46.5745 30.1286 46.7385 30.0607 46.9094 30.0607C47.0804 30.0607 47.2443 30.1286 47.3652 30.2495C47.486 30.3704 47.5539 30.5343 47.5539 30.7053V44.761C47.5531 45.5015 47.2586 46.2114 46.735 46.735C46.2114 47.2586 45.5015 47.5531 44.761 47.5539H30.9204L32.2554 48.7678C32.3818 48.8828 32.4574 49.0434 32.4655 49.2141C32.4735 49.3849 32.4135 49.5519 32.2984 49.6783C32.1834 49.8048 32.0228 49.8804 31.8521 49.8884C31.6813 49.8965 31.5144 49.8364 31.3879 49.7214L28.8205 47.3859C28.7541 47.3255 28.7011 47.2519 28.6648 47.1698C28.6285 47.0877 28.6097 46.9989 28.6097 46.9091C28.6097 46.8194 28.6285 46.7306 28.6648 46.6485C28.7011 46.5664 28.7541 46.4928 28.8205 46.4324L31.3879 44.097C31.5144 43.982 31.6814 43.9219 31.8521 43.93C32.0229 43.9381 32.1835 44.0137 32.2985 44.1401C32.4135 44.2666 32.4736 44.4336 32.4655 44.6043C32.4574 44.7751 32.3818 44.9357 32.2554 45.0507L32.2555 45.051Z" fill="#E0E0E0"/>
</g>
<defs>
<clipPath id="clip0_69_141">
<rect width="55" height="55" fill="white"/>
</clipPath>
</defs>
</svg>
