<svg width="55" height="55" viewBox="0 0 55 55" fill="none" xmlns="http://www.w3.org/2000/svg">
<g clip-path="url(#clip0_67_138)">
<path d="M32.1277 18.7344C32.1277 19.0899 31.8388 19.3789 31.4832 19.3789H9.1126C8.75703 19.3789 8.46807 19.0899 8.46807 18.7344C8.46807 18.3788 8.75703 18.0898 9.1126 18.0898H31.4832C31.8388 18.0898 32.1277 18.3777 32.1277 18.7344ZM54.4629 28.658V52.6894C54.4629 53.6067 53.7163 54.3533 52.7989 54.3533H1.18164C0.826074 54.3533 0.537109 54.0644 0.537109 53.7088V46.7468C0.537109 40.874 5.31523 36.0959 11.1891 36.0959H13.9992V33.7788C12.1355 32.3157 10.7905 30.2188 10.2932 27.8158H9.09219C7.38096 27.8158 5.98877 26.4236 5.98877 24.7124C5.98877 23.7499 6.4292 22.8884 7.11992 22.318H5.39365C5.03809 22.318 4.74912 22.029 4.74912 21.6734V18.4153C4.74912 18.2435 4.81787 18.078 4.94033 17.9566L6.16924 16.7428C6.22188 14.0486 7.06191 11.4039 8.56582 9.16309C8.57871 9.1416 8.59268 9.12119 8.60879 9.10186C8.80859 8.80645 9.01914 8.51748 9.24258 8.23818C10.2599 6.96094 11.4909 5.8749 12.8616 5.01982C12.9067 4.98223 12.9572 4.95107 13.012 4.92744C14.1195 4.25605 15.3162 3.73506 16.5655 3.39023C17.0629 1.80146 18.5485 0.644531 20.2984 0.644531C22.0494 0.644531 23.534 1.80039 24.0313 3.39023C25.2807 3.73506 26.4773 4.25498 27.5849 4.92744C27.6396 4.95107 27.6901 4.98223 27.7353 5.01982C29.106 5.8749 30.337 6.96094 31.3543 8.23818C31.5777 8.51856 31.7883 8.80752 31.9892 9.10293C32.0042 9.12227 32.0182 9.14268 32.0311 9.16309C33.5339 11.4039 34.375 14.0486 34.4276 16.7438L35.6565 17.9577C35.7172 18.0177 35.7653 18.0892 35.7981 18.1679C35.831 18.2466 35.8478 18.3311 35.8478 18.4164V21.6745C35.8478 22.0301 35.5588 22.319 35.2032 22.319H33.477C34.1677 22.8884 34.6081 23.7499 34.6081 24.7135C34.6081 26.4247 33.2159 27.8169 31.5047 27.8169H30.3048C29.8063 30.2199 28.4625 32.3168 26.5987 33.7799V36.097H29.4089C30.7946 36.097 32.1729 36.373 33.4512 36.8994V28.658C33.4512 27.7406 34.1978 26.994 35.1151 26.994H52.8011C53.7163 26.994 54.4629 27.7406 54.4629 28.658ZM33.4479 38.3099C32.5026 37.8544 31.4821 37.5611 30.4401 37.444V47.9327H33.4479V38.3099ZM33.3169 24.7135C33.3169 23.7134 32.5026 22.8991 31.5025 22.8991H30.5153V25.7394C30.5153 26.0047 30.5057 26.2668 30.4853 26.5268H31.5025C32.5026 26.5278 33.3169 25.7136 33.3169 24.7135ZM27.9684 6.71816V14.3118C27.9684 15.1024 28.6118 15.747 29.4035 15.747C30.1952 15.747 30.8387 15.1035 30.8387 14.3118V9.67764C30.0477 8.54283 29.0784 7.54343 27.9684 6.71816ZM17.6763 4.55684V10.3888C17.6763 11.8347 18.8525 13.0099 20.2974 13.0099C21.7422 13.0099 22.9185 11.8336 22.9185 10.3888V4.55684C22.9185 3.11094 21.7422 1.93574 20.2974 1.93574C18.8525 1.93574 17.6763 3.11094 17.6763 4.55684ZM9.75713 9.67764V14.3118C9.75713 15.1024 10.4006 15.747 11.1923 15.747C11.984 15.747 12.6274 15.1035 12.6274 14.3118V6.71816C11.5171 7.54314 10.5478 8.54259 9.75713 9.67764ZM6.03818 21.03H34.5576V18.686L33.3319 17.4754C33.2713 17.4154 33.2232 17.344 33.1903 17.2652C33.1575 17.1865 33.1407 17.102 33.1407 17.0167C33.1407 15.2528 32.7819 13.5599 32.1277 12.0141V14.3118C32.1277 15.8136 30.9053 17.036 29.4035 17.036C27.9018 17.036 26.6793 15.8136 26.6793 14.3118V5.8749C25.9059 5.4334 25.0798 5.06709 24.2075 4.78887V10.3888C24.2075 12.5447 22.4533 14.2989 20.2974 14.2989C18.1414 14.2989 16.3872 12.5447 16.3872 10.3888V4.78779C15.5149 5.06709 14.6889 5.43232 13.9154 5.87383V14.3107C13.9154 15.8125 12.693 17.035 11.1912 17.035C9.68945 17.035 8.46699 15.8125 8.46699 14.3107V12.013C7.79778 13.5959 7.4533 15.2971 7.454 17.0156C7.454 17.1875 7.38525 17.3529 7.26279 17.4743L6.03711 18.685V21.03H6.03818ZM10.1095 26.5278C10.0891 26.2679 10.0794 26.0047 10.0794 25.7404V22.9002H9.09219C8.09209 22.9002 7.27783 23.7145 7.27783 24.7146C7.27783 25.7146 8.09209 26.5289 9.09219 26.5289H10.1095V26.5278ZM20.2974 34.6683C25.2205 34.6683 29.2263 30.6625 29.2263 25.7394V22.319H11.3685V25.7394C11.3685 30.6636 15.3742 34.6683 20.2974 34.6683ZM15.2872 34.6425V37.2829L20.2974 42.5144L25.3075 37.2829V34.6425C23.8262 35.4793 22.1171 35.9584 20.2974 35.9584C18.4776 35.9584 16.7686 35.4793 15.2872 34.6425ZM7.53564 47.9327H10.5435V37.4075C9.4832 37.4795 8.47021 37.7298 7.53564 38.1272V47.9327ZM1.82617 53.0643H33.4479V49.2218H29.7956C29.44 49.2218 29.1511 48.9328 29.1511 48.5772V37.385H26.5966V37.5407C26.5965 37.7069 26.5322 37.8666 26.4172 37.9865L20.9419 43.7046V48.5772C20.9419 48.9328 20.6529 49.2218 20.2974 49.2218C19.9418 49.2218 19.6528 48.9328 19.6528 48.5772V43.7046L14.1775 37.9865C14.0625 37.8666 13.9982 37.7069 13.9981 37.5407V37.385H11.8325V48.5772C11.8325 48.9328 11.5436 49.2218 11.188 49.2218H6.89111C6.53555 49.2218 6.24658 48.9328 6.24658 48.5772V38.7986C3.59541 40.454 1.82617 43.3984 1.82617 46.7479V53.0643ZM53.1738 28.658C53.1738 28.455 53.002 28.2831 52.7989 28.2831H35.1119C34.9089 28.2831 34.737 28.455 34.737 28.658V53.0653H52.7989C53.002 53.0653 53.1738 52.8935 53.1738 52.6904V28.658ZM49.9952 41.5314H37.9156C37.5601 41.5314 37.2711 41.8204 37.2711 42.176C37.2711 42.5315 37.5601 42.8205 37.9156 42.8205H49.9952C50.3508 42.8205 50.6397 42.5315 50.6397 42.176C50.6397 41.8204 50.3508 41.5314 49.9952 41.5314ZM49.9952 44.3556H37.9156C37.5601 44.3556 37.2711 44.6445 37.2711 45.0001C37.2711 45.3557 37.5601 45.6446 37.9156 45.6446H49.9952C50.3508 45.6446 50.6397 45.3557 50.6397 45.0001C50.6397 44.6445 50.3508 44.3556 49.9952 44.3556ZM49.9952 47.1797H37.9156C37.5601 47.1797 37.2711 47.4687 37.2711 47.8242C37.2711 48.1798 37.5601 48.4688 37.9156 48.4688H49.9952C50.3508 48.4688 50.6397 48.1798 50.6397 47.8242C50.6397 47.4687 50.3508 47.1797 49.9952 47.1797ZM49.9952 50.0049H37.9156C37.5601 50.0049 37.2711 50.2938 37.2711 50.6494C37.2711 51.005 37.5601 51.2939 37.9156 51.2939H49.9952C50.3508 51.2939 50.6397 51.005 50.6397 50.6494C50.6397 50.2938 50.3508 50.0049 49.9952 50.0049ZM38.3217 35.7747C38.208 35.6247 38.1253 35.4537 38.0783 35.2715C38.0313 35.0893 38.0209 34.8996 38.0478 34.7134C38.0731 34.5269 38.1353 34.3473 38.2306 34.185C38.326 34.0227 38.4526 33.881 38.6031 33.7681L43.0085 30.4455C43.421 30.134 43.9753 30.134 44.3889 30.4455L45.3073 31.1384C45.4609 30.7323 45.8541 30.4423 46.3128 30.4423H47.1722C47.7641 30.4423 48.2464 30.9246 48.2464 31.5165V33.3545L48.7942 33.7681C49.4248 34.2439 49.5505 35.1431 49.0757 35.7736L48.9897 35.8875C48.7083 36.2603 48.2786 36.4568 47.8446 36.4568C47.7114 36.4568 47.5793 36.4375 47.4493 36.3999V39.6505C47.4493 40.1629 47.0325 40.5797 46.5201 40.5797H40.8783C40.3659 40.5797 39.9491 40.1629 39.9491 39.6505V36.3988C39.3959 36.5578 38.7761 36.373 38.4087 35.8864L38.3217 35.7747ZM44.1611 38.0016H43.2341V39.2917H44.1611V38.0016ZM46.1581 39.2917V35.548L43.6971 33.6918L41.236 35.548V39.2917H41.9439V37.357C41.9439 37.0015 42.2329 36.7125 42.5885 36.7125H44.8046C45.1602 36.7125 45.4491 37.0015 45.4491 37.357V39.2917H46.1581ZM39.3508 34.998L39.4367 35.1119C39.4829 35.1731 39.5753 35.1871 39.6376 35.1398L43.3104 32.3705C43.4221 32.2863 43.5582 32.2408 43.6981 32.2408C43.8381 32.2408 43.9742 32.2863 44.0859 32.3705L47.7587 35.1398C47.821 35.1871 47.9123 35.1731 47.9596 35.1119L48.0455 34.998C48.0917 34.9357 48.0788 34.8444 48.0176 34.7972L47.213 34.1902C47.1333 34.1301 47.0687 34.0524 47.0242 33.9631C46.9796 33.8738 46.9564 33.7755 46.9562 33.6757V31.7313H46.5266V32.3802C46.5266 32.6251 46.388 32.8485 46.1699 32.957C45.9519 33.0655 45.6897 33.0419 45.4942 32.8947L43.6981 31.5401L39.3787 34.7972C39.34 34.8262 39.3271 34.8648 39.3239 34.8917C39.3207 34.9186 39.3218 34.9594 39.3508 34.998Z" fill="#E0E0E0"/>
</g>
<defs>
<clipPath id="clip0_67_138">
<rect width="55" height="55" fill="white"/>
</clipPath>
</defs>
</svg>
