<svg width="50" height="50" viewBox="0 0 50 50" fill="none" xmlns="http://www.w3.org/2000/svg">
<g clip-path="url(#clip0_67_132)">
<path d="M49.2188 20.3773H46.1813C45.6372 17.8575 44.6434 15.4564 43.2477 13.2891L45.3906 11.1438C45.5002 11.0337 45.5617 10.8846 45.5617 10.7293C45.5617 10.574 45.5002 10.4249 45.3906 10.3148L39.6875 4.60938C39.5774 4.49979 39.4284 4.43827 39.273 4.43827C39.1177 4.43827 38.9687 4.49979 38.8586 4.60938L36.7109 6.75234C34.5436 5.35657 32.1425 4.36283 29.6227 3.81875V0.78125C29.6227 0.62585 29.5609 0.476814 29.451 0.36693C29.3412 0.257045 29.1921 0.195313 29.0367 0.195312H20.9633C20.8079 0.195313 20.6588 0.257045 20.549 0.36693C20.4391 0.476814 20.3773 0.62585 20.3773 0.78125V3.81875C17.8575 4.36283 15.4564 5.35657 13.2891 6.75234L11.1438 4.60938C11.0337 4.49979 10.8846 4.43827 10.7293 4.43827C10.574 4.43827 10.4249 4.49979 10.3148 4.60938L4.60938 10.3125C4.49979 10.4226 4.43827 10.5716 4.43827 10.727C4.43827 10.8823 4.49979 11.0313 4.60938 11.1414L6.75234 13.2891C5.35657 15.4564 4.36283 17.8575 3.81875 20.3773H0.78125C0.62585 20.3773 0.476814 20.4391 0.36693 20.549C0.257045 20.6588 0.195313 20.8079 0.195312 20.9633V29.0367C0.195313 29.1921 0.257045 29.3412 0.36693 29.451C0.476814 29.5609 0.62585 29.6227 0.78125 29.6227H3.81875C4.36283 32.1425 5.35657 34.5436 6.75234 36.7109L4.60938 38.8563C4.49979 38.9663 4.43827 39.1154 4.43827 39.2707C4.43827 39.426 4.49979 39.5751 4.60938 39.6852L10.3125 45.3906C10.4226 45.5002 10.5716 45.5617 10.727 45.5617C10.8823 45.5617 11.0313 45.5002 11.1414 45.3906L13.2867 43.2445C15.454 44.6403 17.8552 45.634 20.375 46.1781V49.2188C20.375 49.3741 20.4367 49.5232 20.5466 49.6331C20.6565 49.743 20.8055 49.8047 20.9609 49.8047H29.0367C29.1921 49.8047 29.3412 49.743 29.451 49.6331C29.5609 49.5232 29.6227 49.3741 29.6227 49.2188V46.1813C32.1425 45.6372 34.5436 44.6434 36.7109 43.2477L38.8563 45.3906C38.9663 45.5002 39.1154 45.5617 39.2707 45.5617C39.426 45.5617 39.5751 45.5002 39.6852 45.3906L45.3906 39.6875C45.5002 39.5774 45.5617 39.4284 45.5617 39.273C45.5617 39.1177 45.5002 38.9687 45.3906 38.8586L43.2477 36.7109C44.6434 34.5436 45.6372 32.1425 46.1813 29.6227H49.2188C49.3741 29.6227 49.5232 29.5609 49.6331 29.451C49.743 29.3412 49.8047 29.1921 49.8047 29.0367V20.9633C49.8047 20.8079 49.743 20.6588 49.6331 20.549C49.5232 20.4391 49.3741 20.3773 49.2188 20.3773ZM48.6328 28.4508H45.7031C45.5671 28.4508 45.4354 28.4982 45.3305 28.5847C45.2256 28.6712 45.1541 28.7915 45.1281 28.925C44.6086 31.6216 43.5473 34.1848 42.0086 36.4594C41.9327 36.5722 41.8984 36.708 41.9115 36.8434C41.9246 36.9787 41.9843 37.1054 42.0805 37.2016L44.15 39.2711L39.2703 44.1508L37.2008 42.0812C37.1046 41.9851 36.978 41.9254 36.8426 41.9122C36.7072 41.8991 36.5715 41.9335 36.4586 42.0094C34.184 43.5481 31.6208 44.6094 28.9242 45.1289C28.7907 45.1548 28.6704 45.2264 28.5839 45.3313C28.4974 45.4362 28.45 45.5679 28.45 45.7039V48.6328H21.5492V45.7031C21.5492 45.5671 21.5018 45.4354 21.4153 45.3305C21.3288 45.2256 21.2085 45.1541 21.075 45.1281C18.3784 44.6086 15.8152 43.5473 13.5406 42.0086C13.4278 41.9325 13.292 41.8981 13.1566 41.9112C13.0212 41.9244 12.8946 41.9842 12.7984 42.0805L10.7289 44.15L5.84922 39.2711L7.91875 37.2016C8.0149 37.1054 8.07464 36.9787 8.08775 36.8434C8.10086 36.708 8.06653 36.5722 7.99062 36.4594C6.45188 34.1848 5.39063 31.6216 4.87109 28.925C4.84517 28.7915 4.77362 28.6712 4.66871 28.5847C4.56381 28.4982 4.43207 28.4508 4.29609 28.4508H1.36719V21.5492H4.29688C4.43286 21.5492 4.56459 21.5018 4.66949 21.4153C4.7744 21.3288 4.84595 21.2085 4.87187 21.075C5.39141 18.3784 6.45266 15.8152 7.99141 13.5406C8.06731 13.4278 8.10164 13.292 8.08853 13.1566C8.07542 13.0213 8.01568 12.8946 7.91953 12.7984L5.84922 10.7289L10.7289 5.84922L12.7984 7.91875C12.8943 8.01544 13.021 8.07555 13.1566 8.08868C13.2921 8.1018 13.428 8.06712 13.5406 7.99062C15.8152 6.45188 18.3784 5.39063 21.075 4.87109C21.2085 4.84517 21.3288 4.77362 21.4153 4.66871C21.5018 4.56381 21.5492 4.43207 21.5492 4.29609V1.36719H28.4508V4.29688C28.4508 4.43286 28.4982 4.56459 28.5847 4.66949C28.6712 4.7744 28.7915 4.84595 28.925 4.87187C31.6216 5.39141 34.1848 6.45266 36.4594 7.99141C36.5722 8.06746 36.708 8.10188 36.8434 8.08876C36.9788 8.07565 37.1054 8.01582 37.2016 7.91953L39.2711 5.85L44.1508 10.7297L42.0812 12.7992C41.9851 12.8954 41.9254 13.022 41.9122 13.1574C41.8991 13.2928 41.9335 13.4285 42.0094 13.5414C43.5481 15.816 44.6094 18.3792 45.1289 21.0758C45.1548 21.2093 45.2264 21.3296 45.3313 21.4161C45.4362 21.5026 45.5679 21.55 45.7039 21.55H48.6328V28.4508Z" fill="#E0E0E0"/>
<path d="M25 11.1328C22.2573 11.1328 19.5763 11.9461 17.2958 13.4699C15.0154 14.9936 13.238 17.1594 12.1884 19.6933C11.1388 22.2272 10.8642 25.0154 11.3993 27.7054C11.9343 30.3953 13.2551 32.8662 15.1944 34.8056C17.1338 36.7449 19.6047 38.0657 22.2947 38.6007C24.9846 39.1358 27.7729 38.8612 30.3067 37.8116C32.8406 36.762 35.0064 34.9846 36.5302 32.7042C38.0539 30.4237 38.8672 27.7427 38.8672 25C38.8631 21.3235 37.4007 17.7987 34.801 15.199C32.2013 12.5993 28.6765 11.1369 25 11.1328ZM34.3672 16.4609L33.4242 17.4039C33.3132 17.5074 33.1662 17.5638 33.0144 17.5611C32.8626 17.5584 32.7178 17.4969 32.6105 17.3895C32.5031 17.2822 32.4416 17.1374 32.4389 16.9856C32.4363 16.8338 32.4926 16.6869 32.5961 16.5758L33.5391 15.6328C33.8276 15.8964 34.1037 16.1724 34.3672 16.4609ZM24.4141 12.3344C24.6094 12.325 24.8047 12.3047 25 12.3047C25.1953 12.3047 25.3906 12.325 25.5859 12.3344V13.6719C25.5859 13.8273 25.5242 13.9763 25.4143 14.0862C25.3044 14.1961 25.1554 14.2578 25 14.2578C24.8446 14.2578 24.6956 14.1961 24.5857 14.0862C24.4758 13.9763 24.4141 13.8273 24.4141 13.6719V12.3344ZM16.4609 15.6328L17.4039 16.5758C17.5074 16.6869 17.5638 16.8338 17.5611 16.9856C17.5584 17.1374 17.4969 17.2822 17.3896 17.3895C17.2822 17.4969 17.1374 17.5584 16.9856 17.5611C16.8338 17.5638 16.6869 17.5074 16.5758 17.4039L15.6328 16.4609C15.8964 16.1729 16.1724 15.8969 16.4609 15.6328ZM12.3047 25C12.3047 24.8023 12.325 24.6094 12.3344 24.4141H13.6719C13.8273 24.4141 13.9763 24.4758 14.0862 24.5857C14.1961 24.6956 14.2578 24.8446 14.2578 25C14.2578 25.1554 14.1961 25.3044 14.0862 25.4143C13.9763 25.5242 13.8273 25.5859 13.6719 25.5859H12.3344C12.325 25.3906 12.3047 25.1977 12.3047 25ZM15.6328 33.5391L16.5758 32.5961C16.6869 32.4926 16.8338 32.4362 16.9856 32.4389C17.1374 32.4416 17.2822 32.5031 17.3896 32.6105C17.4969 32.7178 17.5584 32.8626 17.5611 33.0144C17.5638 33.1662 17.5074 33.3131 17.4039 33.4242L16.4609 34.3672C16.1729 34.1042 15.8969 33.8281 15.6328 33.5391ZM25.5859 37.6656C25.3906 37.675 25.1953 37.6953 25 37.6953C24.8047 37.6953 24.6094 37.675 24.4141 37.6656V36.3281C24.4141 36.1727 24.4758 36.0237 24.5857 35.9138C24.6956 35.8039 24.8446 35.7422 25 35.7422C25.1554 35.7422 25.3044 35.8039 25.4143 35.9138C25.5242 36.0237 25.5859 36.1727 25.5859 36.3281V37.6656ZM33.5391 34.3672L32.5961 33.4242C32.4926 33.3131 32.4363 33.1662 32.4389 33.0144C32.4416 32.8626 32.5031 32.7178 32.6105 32.6105C32.7178 32.5031 32.8626 32.4416 33.0144 32.4389C33.1662 32.4362 33.3132 32.4926 33.4242 32.5961L34.3672 33.5391C34.1042 33.8276 33.8281 34.1036 33.5391 34.3672ZM37.6953 25C37.6953 25.1977 37.675 25.3906 37.6656 25.5859H36.3281C36.1727 25.5859 36.0237 25.5242 35.9138 25.4143C35.8039 25.3044 35.7422 25.1554 35.7422 25C35.7422 24.8446 35.8039 24.6956 35.9138 24.5857C36.0237 24.4758 36.1727 24.4141 36.3281 24.4141H37.6656C37.675 24.6094 37.6953 24.8023 37.6953 25ZM37.5594 23.2422H36.3281C35.8619 23.2422 35.4148 23.4274 35.0852 23.757C34.7555 24.0867 34.5703 24.5338 34.5703 25C34.5703 25.4662 34.7555 25.9133 35.0852 26.243C35.4148 26.5726 35.8619 26.7578 36.3281 26.7578H37.5594C37.2614 28.8927 36.4214 30.9156 35.1195 32.6336L34.2531 31.7672C33.9235 31.4375 33.4764 31.2523 33.0102 31.2523C32.544 31.2523 32.0968 31.4375 31.7672 31.7672C31.4375 32.0968 31.2523 32.544 31.2523 33.0102C31.2523 33.4764 31.4375 33.9235 31.7672 34.2531L32.6336 35.1195C30.9156 36.4214 28.8927 37.2614 26.7578 37.5594V36.3281C26.7578 35.8619 26.5726 35.4148 26.243 35.0852C25.9133 34.7555 25.4662 34.5703 25 34.5703C24.5338 34.5703 24.0867 34.7555 23.757 35.0852C23.4274 35.4148 23.2422 35.8619 23.2422 36.3281V37.5594C21.1073 37.2614 19.0844 36.4214 17.3664 35.1195L18.2328 34.2531C18.396 34.0899 18.5255 33.8961 18.6139 33.6828C18.7022 33.4696 18.7477 33.241 18.7477 33.0102C18.7477 32.7793 18.7022 32.5507 18.6139 32.3375C18.5255 32.1242 18.396 31.9304 18.2328 31.7672C18.0696 31.604 17.8758 31.4745 17.6625 31.3861C17.4493 31.2978 17.2207 31.2523 16.9898 31.2523C16.759 31.2523 16.5304 31.2978 16.3172 31.3861C16.1039 31.4745 15.9101 31.604 15.7469 31.7672L14.8805 32.6336C13.5786 30.9156 12.7386 28.8927 12.4406 26.7578H13.6719C14.1381 26.7578 14.5852 26.5726 14.9148 26.243C15.2445 25.9133 15.4297 25.4662 15.4297 25C15.4297 24.5338 15.2445 24.0867 14.9148 23.757C14.5852 23.4274 14.1381 23.2422 13.6719 23.2422H12.4406C12.7386 21.1073 13.5786 19.0844 14.8805 17.3664L15.7469 18.2328C16.0765 18.5625 16.5236 18.7477 16.9898 18.7477C17.4561 18.7477 17.9032 18.5625 18.2328 18.2328C18.5625 17.9032 18.7477 17.456 18.7477 16.9898C18.7477 16.5236 18.5625 16.0765 18.2328 15.7469L17.3664 14.8805C19.0844 13.5786 21.1073 12.7386 23.2422 12.4406V13.6719C23.2422 14.1381 23.4274 14.5852 23.757 14.9148C24.0867 15.2445 24.5338 15.4297 25 15.4297C25.4662 15.4297 25.9133 15.2445 26.243 14.9148C26.5726 14.5852 26.7578 14.1381 26.7578 13.6719V12.4406C28.8927 12.7386 30.9156 13.5786 32.6336 14.8805L31.7672 15.7469C31.4375 16.0765 31.2523 16.5236 31.2523 16.9898C31.2523 17.456 31.4375 17.9032 31.7672 18.2328C32.0968 18.5625 32.544 18.7477 33.0102 18.7477C33.4764 18.7477 33.9235 18.5625 34.2531 18.2328L35.1195 17.3664C36.4214 19.0844 37.2614 21.1073 37.5594 23.2422Z" fill="#E0E0E0"/>
<path d="M34.375 8.78906H15.625C13.8126 8.79113 12.0751 9.51201 10.7935 10.7935C9.51201 12.0751 8.79113 13.8126 8.78906 15.625V34.375C8.79113 36.1874 9.51201 37.9249 10.7935 39.2065C12.0751 40.488 13.8126 41.2089 15.625 41.2109H34.375C36.1874 41.2089 37.9249 40.488 39.2065 39.2065C40.488 37.9249 41.2089 36.1874 41.2109 34.375V15.625C41.2089 13.8126 40.488 12.0751 39.2065 10.7935C37.9249 9.51201 36.1874 8.79113 34.375 8.78906ZM40.0391 34.375C40.0374 35.8767 39.4401 37.3164 38.3783 38.3783C37.3164 39.4401 35.8767 40.0374 34.375 40.0391H15.625C14.1233 40.0374 12.6836 39.4401 11.6217 38.3783C10.5599 37.3164 9.96259 35.8767 9.96094 34.375V15.625C9.96259 14.1233 10.5599 12.6836 11.6217 11.6217C12.6836 10.5599 14.1233 9.96259 15.625 9.96094H34.375C35.8767 9.96259 37.3164 10.5599 38.3783 11.6217C39.4401 12.6836 40.0374 14.1233 40.0391 15.625V34.375Z" fill="#E0E0E0"/>
<path d="M25.5859 22.943V18.6024L26.1484 19.1641C26.2595 19.2676 26.4064 19.324 26.5582 19.3213C26.71 19.3186 26.8548 19.2571 26.9622 19.1498C27.0696 19.0424 27.131 18.8976 27.1337 18.7458C27.1364 18.594 27.0801 18.4471 26.9766 18.336L25.4141 16.7735C25.3597 16.7191 25.2952 16.6759 25.2241 16.6464C25.1531 16.617 25.0769 16.6018 25 16.6018C24.9231 16.6018 24.8469 16.617 24.7759 16.6464C24.7048 16.6759 24.6403 16.7191 24.5859 16.7735L23.0234 18.336C22.9199 18.4471 22.8636 18.594 22.8663 18.7458C22.8689 18.8976 22.9304 19.0424 23.0378 19.1498C23.1451 19.2571 23.29 19.3186 23.4418 19.3213C23.5936 19.324 23.7405 19.2676 23.8516 19.1641L24.4141 18.6024V22.943C24.064 23.0429 23.7452 23.2304 23.4878 23.4878C23.2304 23.7452 23.0428 24.0641 22.943 24.4141H18.6023L19.1641 23.8516C19.2676 23.7405 19.3239 23.5936 19.3212 23.4418C19.3185 23.29 19.257 23.1452 19.1497 23.0378C19.0423 22.9305 18.8975 22.869 18.7457 22.8663C18.5939 22.8636 18.447 22.92 18.3359 23.0235L16.7734 24.586C16.719 24.6403 16.6758 24.7049 16.6464 24.7759C16.6169 24.847 16.6017 24.9231 16.6017 25.0001C16.6017 25.077 16.6169 25.1531 16.6464 25.2242C16.6758 25.2952 16.719 25.3598 16.7734 25.4141L18.3359 26.9766C18.447 27.0801 18.5939 27.1365 18.7457 27.1338C18.8975 27.1311 19.0423 27.0696 19.1497 26.9623C19.257 26.8549 19.3185 26.7101 19.3212 26.5583C19.3239 26.4065 19.2676 26.2596 19.1641 26.1485L18.6023 25.586H22.943C23.0442 25.946 23.2378 26.2732 23.5046 26.5352C23.7715 26.7972 24.1022 26.9848 24.464 27.0793C24.8258 27.1739 25.206 27.1721 25.5669 27.0743C25.9278 26.9764 26.2568 26.7857 26.5213 26.5213C26.7857 26.2569 26.9763 25.9279 27.0742 25.567C27.1721 25.2061 27.1738 24.8259 27.0793 24.4641C26.9847 24.1023 26.7971 23.7715 26.5351 23.5047C26.2732 23.2379 25.9459 23.0442 25.5859 22.943ZM25 25.9766C24.8068 25.9766 24.618 25.9193 24.4574 25.812C24.2968 25.7047 24.1717 25.5522 24.0978 25.3738C24.0239 25.1953 24.0045 24.999 24.0422 24.8095C24.0799 24.6201 24.1729 24.4461 24.3095 24.3095C24.446 24.1729 24.62 24.0799 24.8095 24.0423C24.9989 24.0046 25.1953 24.0239 25.3737 24.0978C25.5521 24.1717 25.7047 24.2969 25.812 24.4575C25.9193 24.6181 25.9766 24.8069 25.9766 25.0001C25.9761 25.2589 25.8731 25.5071 25.6901 25.6901C25.507 25.8732 25.2589 25.9762 25 25.9766Z" fill="#E0E0E0"/>
</g>
<defs>
<clipPath id="clip0_67_132">
<rect width="50" height="50" fill="white"/>
</clipPath>
</defs>
</svg>
