<svg width="50" height="50" viewBox="0 0 50 50" fill="none" xmlns="http://www.w3.org/2000/svg">
<path d="M45.2703 48.6487H5.4054C4.3302 48.6487 3.29904 48.2215 2.53875 47.4613C1.77847 46.701 1.35135 45.6698 1.35135 44.5946V14.8649H2.7027V44.5946C2.7027 45.3114 2.98745 45.9988 3.4943 46.5057C4.00116 47.0126 4.6886 47.2973 5.4054 47.2973H44.5946V37.1622H45.9459V47.973C45.9459 48.1522 45.8748 48.324 45.748 48.4508C45.6213 48.5775 45.4495 48.6487 45.2703 48.6487Z" fill="#E0E0E0"/>
<path d="M45.9459 29.0541H44.5946V18.919H5.4054V17.5676H45.2703C45.4495 17.5676 45.6213 17.6388 45.748 17.7655C45.8748 17.8922 45.9459 18.0641 45.9459 18.2433V29.0541Z" fill="#E0E0E0"/>
<path d="M37.1622 18.9189H5.4054C4.3302 18.9189 3.29904 18.4918 2.53875 17.7315C1.77847 16.9712 1.35135 15.94 1.35135 14.8648C1.35135 13.7896 1.77847 12.7585 2.53875 11.9982C3.29904 11.2379 4.3302 10.8108 5.4054 10.8108H9.19594V12.1621H5.4054C4.6886 12.1621 4.00116 12.4469 3.4943 12.9537C2.98745 13.4606 2.7027 14.148 2.7027 14.8648C2.7027 15.5816 2.98745 16.2691 3.4943 16.7759C4.00116 17.2828 4.6886 17.5675 5.4054 17.5675H36.4865V12.1621H30.9122V10.8108H37.1622C37.3414 10.8108 37.5132 10.882 37.6399 11.0087C37.7667 11.1354 37.8378 11.3073 37.8378 11.4865V18.2432C37.8378 18.4224 37.7667 18.5943 37.6399 18.721C37.5132 18.8477 37.3414 18.9189 37.1622 18.9189ZM48.6487 37.8378H39.1892C37.9348 37.8378 36.7318 37.3395 35.8448 36.4525C34.9578 35.5655 34.4595 34.3625 34.4595 33.1081C34.4595 31.8537 34.9578 30.6507 35.8448 29.7637C36.7318 28.8767 37.9348 28.3784 39.1892 28.3784H48.6487C48.8279 28.3784 48.9997 28.4495 49.1264 28.5763C49.2531 28.703 49.3243 28.8748 49.3243 29.054V37.1621C49.3243 37.3413 49.2531 37.5132 49.1264 37.6399C48.9997 37.7666 48.8279 37.8378 48.6487 37.8378ZM39.1892 29.7297C38.2932 29.7297 37.4339 30.0856 36.8003 30.7192C36.1667 31.3528 35.8108 32.2121 35.8108 33.1081C35.8108 34.0041 36.1667 34.8634 36.8003 35.497C37.4339 36.1305 38.2932 36.4865 39.1892 36.4865H47.973V29.7297H39.1892Z" fill="#E0E0E0"/>
<path d="M39.1892 35.1351C38.7883 35.1351 38.3964 35.0162 38.063 34.7935C37.7297 34.5708 37.4699 34.2542 37.3165 33.8838C37.163 33.5134 37.1229 33.1059 37.2011 32.7126C37.2793 32.3194 37.4724 31.9583 37.7559 31.6748C38.0394 31.3913 38.4005 31.1982 38.7937 31.12C39.1869 31.0418 39.5945 31.082 39.9649 31.2354C40.3353 31.3888 40.6519 31.6486 40.8746 31.9819C41.0973 32.3153 41.2162 32.7072 41.2162 33.1081C41.2162 33.6457 41.0027 34.1613 40.6225 34.5414C40.2424 34.9216 39.7268 35.1351 39.1892 35.1351ZM39.1892 32.4324C39.0556 32.4324 38.9249 32.4721 38.8138 32.5463C38.7027 32.6205 38.6161 32.7261 38.5649 32.8495C38.5138 32.973 38.5004 33.1089 38.5265 33.2399C38.5526 33.371 38.6169 33.4914 38.7114 33.5859C38.8059 33.6804 38.9263 33.7447 39.0574 33.7708C39.1884 33.7969 39.3243 33.7835 39.4478 33.7323C39.5712 33.6812 39.6767 33.5946 39.751 33.4835C39.8252 33.3724 39.8649 33.2417 39.8649 33.1081C39.8649 32.9289 39.7937 32.757 39.667 32.6303C39.5403 32.5036 39.3684 32.4324 39.1892 32.4324ZM10.7162 18.8176L10.0405 17.6689L28.7365 6.18242C28.8204 6.13037 28.9147 6.09734 29.0128 6.08567C29.1108 6.074 29.2103 6.08396 29.3041 6.11486C29.3971 6.1463 29.4822 6.19764 29.5534 6.26533C29.6246 6.33301 29.6801 6.4154 29.7162 6.50675L34.223 17.9932L32.9662 18.4932L28.7162 7.75675L10.7162 18.8176Z" fill="#E0E0E0"/>
<path d="M2.7027 16.7703L1.92567 15.6622L22.5878 1.47299C22.6675 1.41182 22.7597 1.36917 22.8579 1.34813C22.9561 1.32709 23.0577 1.3282 23.1554 1.35137C23.2496 1.37732 23.337 1.42337 23.4116 1.48636C23.4863 1.54935 23.5464 1.62778 23.5878 1.71623L26.6824 8.47299L25.4527 9.04056L22.6959 3.04056L2.7027 16.7703Z" fill="#E0E0E0"/>
</svg>
