<svg width="55" height="55" viewBox="0 0 55 55" fill="none" xmlns="http://www.w3.org/2000/svg">
<path d="M21.3504 53.5136C21.083 53.5143 20.8166 53.48 20.5581 53.4117C19.1229 53.0282 18.2407 51.6896 17.3874 50.3949C16.9259 49.5514 16.2963 48.8115 15.5375 48.2209C14.6326 47.8482 13.6604 47.6666 12.682 47.6873C11.1486 47.5936 9.56554 47.4933 8.53541 46.4654C7.50527 45.4375 7.40716 43.8514 7.31277 42.3188C7.33249 41.3414 7.15058 40.3703 6.77838 39.4663C6.188 38.7068 5.44776 38.0769 4.60365 37.6156C3.30892 36.7623 1.97034 35.8801 1.58757 34.4449C1.21595 33.0684 1.91831 31.6659 2.59392 30.3088C3.11345 29.4511 3.44836 28.4945 3.57723 27.5001C3.44783 26.5067 3.11295 25.5511 2.59392 24.6943C1.91831 23.3379 1.21966 21.9346 1.58757 20.5582C1.97034 19.123 3.30966 18.2407 4.60365 17.3875C5.4477 16.9264 6.18794 16.2967 6.77838 15.5376C7.15071 14.6325 7.33238 13.6604 7.31203 12.682C7.40716 11.1502 7.50453 9.56634 8.53466 8.53546C9.5648 7.50458 11.1486 7.40722 12.6812 7.31282C13.6587 7.33255 14.6297 7.15063 15.5338 6.77843C16.2935 6.18934 16.9244 5.45071 17.3874 4.60816C18.2407 3.31343 19.1229 1.97485 20.5581 1.59134C21.9301 1.22641 23.3371 1.92208 24.695 2.59769C25.5518 3.11543 26.5071 3.44905 27.5 3.57728C28.4932 3.44791 29.4485 3.11302 30.305 2.59397C31.6629 1.91836 33.0699 1.22269 34.4419 1.58762C35.8771 1.97113 36.7593 3.30972 37.6126 4.60445C38.0751 5.44834 38.7061 6.18828 39.4662 6.77843C40.3711 7.15111 41.3433 7.33279 42.3218 7.31208C43.8536 7.40647 45.4382 7.50458 46.4683 8.53472C47.4984 9.56485 47.5928 11.1487 47.6872 12.6813C47.6675 13.6587 47.8494 14.6298 48.2216 15.5338C48.812 16.2933 49.5522 16.9232 50.3964 17.3845C51.6911 18.2378 53.0297 19.12 53.4124 20.5552C53.7803 21.9317 53.0817 23.3342 52.4061 24.6913C51.8866 25.549 51.5516 26.5056 51.4228 27.5001C51.5522 28.4934 51.8871 29.449 52.4061 30.3058C53.0817 31.663 53.7803 33.0655 53.4124 34.4419C53.0297 35.8771 51.6903 36.7594 50.3964 37.6126C49.552 38.0748 48.8117 38.7057 48.2216 39.4663C47.8493 40.3713 47.6676 41.3434 47.688 42.3218C47.5928 43.8536 47.4955 45.4375 46.4653 46.4684C45.4352 47.4992 43.8514 47.5929 42.3188 47.6873C41.3403 47.6671 40.3682 47.8491 39.4632 48.2217C38.7042 48.8121 38.0743 49.5521 37.6126 50.3957C36.7593 51.6904 35.8771 53.029 34.4419 53.4125C33.0699 53.7782 31.6629 53.0817 30.305 52.4061C29.4485 51.8871 28.4932 51.5522 27.5 51.4228C26.5069 51.5522 25.5516 51.8871 24.695 52.4061C23.6767 53.0201 22.5339 53.3985 21.3504 53.5136ZM21.3504 2.97303C21.2118 2.97182 21.0736 2.98881 20.9394 3.02357C20.0475 3.2614 19.3266 4.36141 18.6249 5.42201C18.0516 6.46812 17.2499 7.37151 16.2793 8.06499C15.1796 8.56911 13.9806 8.81908 12.7711 8.79634C11.4571 8.87735 10.2166 8.9539 9.58338 9.5864C8.95014 10.2189 8.87433 11.4601 8.79331 12.7742C8.81631 13.9836 8.56659 15.1826 8.0627 16.2823C7.37074 17.2521 6.46948 18.0537 5.42568 18.628C4.36284 19.3288 3.26507 20.0528 3.02649 20.9417C2.80351 21.7749 3.35054 22.8741 3.92804 24.0313C4.56315 25.0872 4.95138 26.273 5.06372 27.5001C4.95025 28.7274 4.56074 29.9132 3.92432 30.9688C3.3446 32.1297 2.80128 33.223 3.02277 34.0584C3.26135 34.9503 4.36061 35.6713 5.42196 36.3721C6.46794 36.9459 7.37128 37.7479 8.06493 38.7186C8.56906 39.8182 8.81903 41.0172 8.79628 42.2267C8.8773 43.5407 8.95385 44.7812 9.58635 45.4144C10.2189 46.0477 11.4601 46.1235 12.7741 46.2045C13.9836 46.1812 15.1827 46.4309 16.2822 46.9351C17.2527 47.6288 18.0544 48.5321 18.6279 49.5781C19.3288 50.6402 20.0527 51.7387 20.9416 51.9765C21.7748 52.1995 22.8741 51.654 24.032 51.0757C25.0873 50.4393 26.2729 50.0497 27.5 49.9363C28.7271 50.0497 29.9127 50.4393 30.968 51.0757C32.1289 51.654 33.2267 52.1995 34.0584 51.9765C34.9503 51.7387 35.6712 50.6387 36.3728 49.5781C36.9461 48.532 37.7479 47.6286 38.7185 46.9351C39.8181 46.431 41.0172 46.181 42.2266 46.2038C43.5407 46.1228 44.7812 46.0462 45.4144 45.4137C46.0476 44.7812 46.1234 43.54 46.2045 42.2259C46.1815 41.0165 46.4312 39.8175 46.9351 38.7178C47.6287 37.7474 48.5321 36.9456 49.578 36.3721C50.6409 35.6713 51.7387 34.9473 51.9772 34.0584C52.2002 33.2253 51.6532 32.126 51.0757 30.9688C50.4393 29.9132 50.0498 28.7274 49.9363 27.5001C50.0498 26.2727 50.4393 25.0869 51.0757 24.0313C51.6532 22.8704 52.1987 21.7749 51.9772 20.9417C51.7387 20.0498 50.6394 19.3288 49.578 18.628C48.5321 18.0542 47.6287 17.2522 46.9351 16.2815C46.4309 15.1819 46.181 13.9829 46.2037 12.7734C46.1227 11.4594 46.0462 10.2189 45.4137 9.58566C44.7812 8.95242 43.5399 8.87661 42.2259 8.79559C41.0164 8.81895 39.8173 8.56922 38.7178 8.06499C37.7477 7.37239 36.946 6.47035 36.3721 5.42573C35.6712 4.36363 34.9473 3.26512 34.0584 3.02728C33.226 2.80431 32.1297 3.34985 30.968 3.92809C29.9124 4.56326 28.7268 4.9515 27.5 5.06377C26.2729 4.95037 25.0873 4.56085 24.032 3.92438C23.214 3.42599 22.3018 3.10209 21.3526 2.97303H21.3504Z" fill="#E0E0E0"/>
<path d="M33.4251 37.9285C32.7098 37.9289 32.0057 37.7505 31.377 37.4093C30.7483 37.0681 30.2149 36.5751 29.8254 35.9751C29.4359 35.3751 29.2026 34.6872 29.1469 33.9741C29.0911 33.2609 29.2147 32.5452 29.5063 31.892C29.7978 31.2387 30.2482 30.6689 30.8162 30.2341C31.3843 29.7994 32.0521 29.5138 32.7589 29.4031C33.4656 29.2924 34.1887 29.3603 34.8625 29.6005C35.5363 29.8407 36.1393 30.2457 36.6166 30.7785C37.17 31.3948 37.533 32.1583 37.6616 32.9766C37.7903 33.7948 37.679 34.6329 37.3414 35.3893C37.0038 36.1457 36.4542 36.788 35.7592 37.2387C35.0642 37.6893 34.2535 37.9289 33.4251 37.9285ZM33.4251 30.8402C32.7837 30.8408 32.1618 31.0615 31.6636 31.4655C31.1653 31.8695 30.8208 32.4323 30.6876 33.0598C30.5544 33.6873 30.6406 34.3415 30.9318 34.913C31.223 35.4846 31.7015 35.9389 32.2874 36.2001C32.8733 36.4612 33.5311 36.5134 34.1508 36.3478C34.7706 36.1822 35.3147 35.809 35.6923 35.2905C36.0699 34.7719 36.2581 34.1395 36.2255 33.4988C36.1928 32.8582 35.9413 32.2482 35.5129 31.7707C35.25 31.4766 34.9277 31.2416 34.5673 31.0811C34.2069 30.9207 33.8166 30.8386 33.4221 30.8402H33.4251ZM21.5786 25.6456C20.8632 25.6461 20.1592 25.4676 19.5304 25.1264C18.9017 24.7853 18.3683 24.2923 17.9788 23.6923C17.5893 23.0923 17.3561 22.4044 17.3003 21.6912C17.2446 20.9781 17.3681 20.2623 17.6597 19.6091C17.9513 18.9559 18.4016 18.386 18.9697 17.9513C19.5378 17.5166 20.2056 17.2309 20.9123 17.1202C21.619 17.0096 22.3422 17.0774 23.016 17.3177C23.6898 17.5579 24.2928 17.9628 24.7701 18.4956C25.3235 19.112 25.6865 19.8754 25.8151 20.6937C25.9437 21.512 25.8325 22.35 25.4949 23.1064C25.1572 23.8628 24.6077 24.5052 23.9126 24.9558C23.2176 25.4065 22.4069 25.6461 21.5786 25.6456ZM21.5786 18.5573C20.9371 18.5581 20.3154 18.779 19.8172 19.1831C19.3191 19.5872 18.9747 20.15 18.8417 20.7775C18.7086 21.405 18.7949 22.0591 19.0862 22.6306C19.3775 23.2021 19.856 23.6563 20.4419 23.9174C21.0278 24.1784 21.6856 24.2305 22.3053 24.0649C22.925 23.8993 23.4691 23.526 23.8466 23.0075C24.2242 22.4889 24.4123 21.8565 24.3797 21.2159C24.347 20.5753 24.0954 19.9653 23.6671 19.4879C23.4037 19.1942 23.0812 18.9594 22.7208 18.7991C22.3604 18.6387 21.9701 18.5563 21.5756 18.5573H21.5786ZM17.5948 37.8935C17.4469 37.8938 17.3022 37.85 17.1794 37.7676C17.0565 37.6852 16.9611 37.568 16.9052 37.431C16.8493 37.2941 16.8356 37.1435 16.8657 36.9987C16.8959 36.8539 16.9686 36.7214 17.0745 36.6181L36.8864 17.3176C37.0276 17.1796 37.2179 17.1034 37.4153 17.1057C37.6128 17.108 37.8012 17.1886 37.9392 17.3299C38.0772 17.4711 38.1534 17.6614 38.1511 17.8588C38.1488 18.0562 38.0682 18.2447 37.9269 18.3827L18.1136 37.6825C17.9748 37.8178 17.7886 37.8935 17.5948 37.8935Z" fill="#E0E0E0"/>
</svg>
