<svg width="9" height="15" viewBox="0 0 9 15" fill="none" xmlns="http://www.w3.org/2000/svg">
<path d="M0.369942 0.369955C0.616578 0.123318 0.93048 0 1.31165 0C1.69281 0 2.00671 0.123318 2.25335 0.369955L8.44169 6.5583C8.57622 6.69282 8.67129 6.83856 8.72689 6.99551C8.7825 7.15247 8.81075 7.32063 8.81165 7.5C8.81165 7.67937 8.77801 7.85336 8.71075 8.02197C8.64348 8.19058 8.5538 8.33049 8.44169 8.4417L2.25335 14.63C2.00671 14.8767 1.69281 15 1.31165 15C0.93048 15 0.616578 14.8767 0.369942 14.63C0.123304 14.3834 -1.33514e-05 14.0695 -1.33514e-05 13.6883C-1.33514e-05 13.3072 0.123304 12.9933 0.369942 12.7466L5.61658 7.5L0.369942 2.25336C0.123304 2.00673 -1.33514e-05 1.69282 -1.33514e-05 1.31166C-1.33514e-05 0.930493 0.123304 0.616591 0.369942 0.369955Z" fill="white"/>
</svg>
