<svg width="9" height="15" viewBox="0 0 9 15" fill="none" xmlns="http://www.w3.org/2000/svg">
<path d="M8.4417 14.63C8.19507 14.8767 7.88117 15 7.5 15C7.11883 15 6.80493 14.8767 6.5583 14.63L0.369956 8.4417C0.235427 8.30718 0.140358 8.16144 0.084753 8.00449C0.0291476 7.84753 0.000896861 7.67937 0 7.5C0 7.32063 0.033632 7.14664 0.100897 6.97803C0.168161 6.80942 0.257848 6.66951 0.369956 6.5583L6.5583 0.369958C6.80493 0.123322 7.11883 0 7.5 0C7.88117 0 8.19507 0.123322 8.4417 0.369958C8.68834 0.616594 8.81166 0.930494 8.81166 1.31166C8.81166 1.69283 8.68834 2.00673 8.4417 2.25336L3.19507 7.5L8.4417 12.7466C8.68834 12.9933 8.81166 13.3072 8.81166 13.6883C8.81166 14.0695 8.68834 14.3834 8.4417 14.63Z" fill="white"/>
</svg>
