<svg width="25" height="25" viewBox="0 0 25 25" fill="none" xmlns="http://www.w3.org/2000/svg">
<path d="M1.79309 23.207C1.86566 23.2796 1.95182 23.3373 2.04666 23.3766C2.14149 23.4159 2.24316 23.4361 2.34583 23.4361C2.44849 23.4361 2.55016 23.4159 2.64501 23.3766C2.73984 23.3373 2.82601 23.2796 2.89857 23.207L12.5002 13.6055L22.1056 23.207C22.2522 23.3536 22.4511 23.436 22.6583 23.436C22.8657 23.436 23.0644 23.3536 23.2111 23.207C23.3577 23.0604 23.4401 22.8616 23.4401 22.6543C23.4401 22.447 23.3577 22.2481 23.2111 22.1015L13.6056 12.5L23.2072 2.89453C23.3538 2.74794 23.4361 2.54912 23.4361 2.34179C23.4361 2.13448 23.3538 1.93566 23.2072 1.78907C23.0606 1.64247 22.8617 1.56012 22.6544 1.56012C22.4471 1.56012 22.2483 1.64247 22.1017 1.78907L12.5002 11.3945L2.89466 1.79297C2.74521 1.66498 2.55296 1.59811 2.35633 1.60569C2.15971 1.61329 1.97319 1.69481 1.83406 1.83394C1.69492 1.97307 1.61342 2.15959 1.60582 2.35621C1.59823 2.55283 1.66511 2.74508 1.79309 2.89453L11.3947 12.5L1.79309 22.1055C1.64758 22.2519 1.56592 22.4499 1.56592 22.6563C1.56592 22.8626 1.64758 23.0606 1.79309 23.207Z" fill="white"/>
</svg>
