<svg width="90" height="74" viewBox="0 0 90 74" fill="none" xmlns="http://www.w3.org/2000/svg">
<g clip-path="url(#clip0_33_9)">
<path d="M6.35257 70.351L6.3348 64.808H3.88466L3.85165 65.7301C3.83642 66.2354 3.80595 66.6851 3.75771 67.1121C3.72428 67.5081 3.66405 67.9014 3.57744 68.2894C3.51867 68.6093 3.41794 68.9202 3.27784 69.2141C3.17275 69.4439 3.01543 69.6463 2.81828 69.8053L0.256427 69.5097C0.385666 69.5173 0.514983 69.4961 0.634915 69.4475C0.754846 69.399 0.862356 69.3244 0.949575 69.2292C1.15684 68.9831 1.30606 68.6939 1.38628 68.3829C1.50824 67.9708 1.5882 67.5476 1.62495 67.1197C1.68081 66.6346 1.71889 66.1091 1.74174 65.5305L1.83061 62.9106L8.70369 62.8879L8.72908 70.3358L6.35257 70.351ZM0.00506592 73.13V69.5147L9.8894 69.4819V73.0972H7.68555V71.3868L2.22415 71.4146V73.125L0.00506592 73.13ZM20.736 71.3615L18.6642 67.3192L20.6954 66.1722L23.5289 71.3413L20.736 71.3615ZM17.3591 68.1075V66.1672H20.114V68.1075H17.3591ZM20.83 67.3496L18.5982 67.1197L20.8249 62.8576H23.3487L20.83 67.3496ZM13.0301 71.3666H10.2372L13.0505 66.1925L15.0817 67.3268L13.0301 71.3666ZM18.0751 71.3489H15.7113L15.6834 62.8601H18.0472L18.0751 71.3489ZM16.407 68.105H13.642V66.1647H16.4096L16.407 68.105ZM12.9184 67.3723L10.3566 62.8904H12.8956L15.1147 67.1399L12.9184 67.3723ZM23.2471 71.3262L26.9845 62.8247H29.361L33.1695 71.3009H30.6584L27.6853 63.997H28.6349L25.7099 71.3236L23.2471 71.3262ZM25.3011 69.6714L25.9156 67.9029L30.0846 67.8902L30.7118 69.6587L25.3011 69.6714ZM34.1445 71.2908L34.1166 62.802H36.1021L39.6338 68.5673H38.5852L42.0154 62.7843H44.0009L44.0542 71.2731H41.825L41.7945 66.1445H42.1728L39.616 70.4394H38.542L35.8837 66.1571H36.3356L36.3534 71.2857L34.1445 71.2908Z" fill="white"/>
<path d="M50.0437 71.4146C49.4039 71.4217 48.7679 71.3165 48.1649 71.1038C47.6125 70.8998 47.1066 70.588 46.677 70.1868C46.2603 69.7933 45.9271 69.3209 45.6969 68.7972C45.4542 68.2347 45.3314 67.6282 45.3364 67.0161C45.3275 66.4089 45.446 65.8066 45.6842 65.2476C45.9098 64.718 46.2395 64.2386 46.6541 63.8378C47.0818 63.4372 47.5861 63.1262 48.1369 62.9233C48.7368 62.6994 49.3726 62.5864 50.0132 62.5898C50.7376 62.5748 51.4568 62.7135 52.1232 62.9965C52.7338 63.2574 53.2709 63.6634 53.6872 64.1789L52.1638 65.5659C51.9107 65.2624 51.599 65.0124 51.2472 64.8307C50.9079 64.6585 50.5312 64.5717 50.1504 64.5781C49.8214 64.5755 49.495 64.6346 49.1881 64.7524C48.8995 64.8622 48.6392 65.0349 48.4264 65.2577C48.2173 65.477 48.0527 65.7343 47.9414 66.0156C47.8262 66.3339 47.7694 66.6702 47.7738 67.0085C47.7706 67.3482 47.83 67.6856 47.949 68.0039C48.0626 68.2897 48.2288 68.5519 48.4391 68.777C48.6556 68.9899 48.9153 69.1544 49.2008 69.2596C49.5079 69.3758 49.8345 69.4324 50.163 69.4263C50.5441 69.4338 50.921 69.347 51.2599 69.1737C51.6099 68.9881 51.9196 68.7357 52.1714 68.4309L53.7126 69.8078C53.2949 70.3218 52.7618 70.7311 52.1562 71.0028C51.4891 71.2868 50.7692 71.4272 50.0437 71.4146ZM56.6197 71.2226L56.5943 64.1031L57.1326 64.6362H53.9766V62.7313L61.5936 62.706V64.6109H58.4504L58.9835 64.0753L59.0089 71.1948L56.6197 71.2226ZM62.7133 71.2024L62.6854 62.7136L66.5853 62.7009C67.2742 62.6817 67.9595 62.8074 68.5962 63.0698C69.1356 63.2923 69.5956 63.6707 69.9165 64.1562C70.2357 64.6552 70.3991 65.2372 70.3862 65.8287C70.4032 66.4157 70.2441 66.9944 69.9292 67.4911C69.6054 67.9744 69.1489 68.3549 68.614 68.5875C67.9792 68.8547 67.2947 68.9847 66.6056 68.969H64.0463L65.1152 67.9205V71.1847L62.7133 71.2024ZM65.1152 68.1858L64.0412 67.0868H66.4533C66.8546 67.116 67.2528 66.9983 67.573 66.7559C67.6997 66.6411 67.7991 66.4997 67.8641 66.342C67.9291 66.1842 67.958 66.0141 67.9488 65.8438C67.9576 65.672 67.9281 65.5005 67.8622 65.3414C67.7963 65.1824 67.6958 65.0399 67.5679 64.9242C67.2465 64.6828 66.847 64.5676 66.4457 64.6008H64.0311L65.1 63.4942L65.1152 68.1858ZM75.8095 71.3287C75.1646 71.3381 74.5234 71.2293 73.918 71.0078C73.3555 70.8026 72.8383 70.4912 72.3946 70.0908C71.975 69.6922 71.6377 69.2159 71.4018 68.6886C71.0386 67.8685 70.9383 66.9569 71.1146 66.078C71.2908 65.1991 71.7351 64.3957 72.3869 63.7772C72.8228 63.3691 73.3353 63.0506 73.8951 62.8399C75.1147 62.3992 76.4505 62.3947 77.6731 62.8273C78.2325 63.031 78.744 63.3466 79.1762 63.7545C79.8272 64.3756 80.272 65.1796 80.4512 66.0591C80.6305 66.9386 80.5355 67.8516 80.1791 68.676C79.9503 69.2032 79.616 69.6785 79.1965 70.0731C78.7652 70.4783 78.2567 70.7935 77.7011 71.0003C77.0951 71.2276 76.452 71.3407 75.8044 71.3338L75.8095 71.3287ZM75.8095 69.3404C76.1186 69.3421 76.4249 69.2829 76.7109 69.1661C76.9866 69.0584 77.2353 68.8919 77.4395 68.6785C77.6534 68.4561 77.8185 68.192 77.9245 67.9029C78.0498 67.5861 78.1111 67.2478 78.1048 66.9074C78.1087 66.5668 78.0457 66.2287 77.9194 65.912C77.812 65.6276 77.645 65.3693 77.4294 65.1541C77.2268 64.9321 76.9758 64.7593 76.6956 64.6488C76.4096 64.5332 76.103 64.4765 75.7943 64.4821C75.4813 64.4802 75.171 64.5386 74.8802 64.6539C74.6033 64.7688 74.354 64.9411 74.149 65.1592C73.9408 65.3791 73.7763 65.6363 73.6641 65.9171C73.5473 66.2358 73.4913 66.5734 73.499 66.9125C73.4953 67.2512 73.5538 67.5877 73.6717 67.9054C73.7861 68.1915 73.9522 68.4543 74.1617 68.681C74.3721 68.8882 74.6214 69.0522 74.8955 69.1635C75.1819 69.2796 75.4876 69.3413 75.7968 69.3455L75.8095 69.3404ZM81.8473 71.1392L81.8193 62.6504H84.1958L84.2111 67.6351L87.7174 62.6378H89.9848L90.0127 71.1266H87.6362L87.6184 66.1546L84.112 71.1367L81.8473 71.1392ZM85.8868 62.1274C84.9999 62.1274 84.3617 61.959 83.9724 61.6222C83.7724 61.4357 83.6159 61.2079 83.5141 60.9547C83.4124 60.7015 83.3677 60.4291 83.3834 60.1568H85.0032C84.9927 60.387 85.0718 60.6124 85.2241 60.7859C85.419 60.9208 85.6507 60.9931 85.8881 60.9931C86.1255 60.9931 86.3572 60.9208 86.552 60.7859C86.6312 60.7015 86.6925 60.602 86.7322 60.4935C86.7719 60.385 86.7892 60.2696 86.7831 60.1543H88.403C88.4199 60.4277 88.3757 60.7014 88.2734 60.9557C88.1711 61.21 88.0133 61.4385 87.8114 61.6247C87.4068 61.9615 86.7611 62.1308 85.8741 62.1325L85.8868 62.1274Z" fill="#FE831E"/>
<path d="M73.7682 34.4656L14.8836 34.4529C14.3217 34.4338 13.7893 34.1982 13.3986 33.7959C13.0079 33.3936 12.7895 32.8561 12.7895 32.2966C12.7895 31.7372 13.0079 31.1996 13.3986 30.7973C13.7893 30.395 14.3217 30.1595 14.8836 30.1403L73.7656 30.1555C74.34 30.1555 74.8909 30.3825 75.2971 30.7867C75.7032 31.1908 75.9314 31.739 75.9314 32.3105C75.9314 32.8821 75.7032 33.4302 75.2971 33.8344C74.8909 34.2385 74.34 34.4656 73.7656 34.4656H73.7682Z" fill="#FE831E"/>
<path d="M49.282 0H38.8975V0.128848C38.8989 0.782346 38.6838 1.41808 38.2856 1.93777C37.8879 2.4549 37.3317 2.82914 36.7013 3.00393C24.7426 6.31355 17.5648 17.4374 17.5623 30.6557H71.0921C71.0921 17.2808 63.7467 6.04322 51.5417 2.88013C50.8985 2.71761 50.3278 2.34702 49.9193 1.82661C49.509 1.30501 49.2848 0.662379 49.282 0Z" fill="#FE831E"/>
<path d="M32.4789 16.3384C32.0522 16.3378 31.6431 16.1688 31.3414 15.8686C31.0397 15.5683 30.8698 15.1613 30.8692 14.7367V4.29495C30.8696 4.0319 30.9351 3.77299 31.0599 3.54111C31.1848 3.30923 31.3651 3.11152 31.5849 2.96543C31.8048 2.81934 32.0574 2.72937 32.3205 2.70349C32.5836 2.6776 32.849 2.71658 33.0933 2.81699C33.2891 2.89664 33.4669 3.01429 33.6164 3.16307C33.7659 3.31186 33.8842 3.4888 33.9642 3.68355C34.045 3.87735 34.0864 4.08514 34.0861 4.29495V14.7241C34.0883 15.15 33.9213 15.5595 33.6214 15.8635C33.4725 16.0142 33.2946 16.1336 33.0984 16.2146C32.902 16.2959 32.6916 16.3379 32.4789 16.3384Z" fill="white"/>
<path d="M56.1754 16.3384C55.9646 16.339 55.7557 16.2977 55.561 16.2172C55.2667 16.096 55.0153 15.8906 54.8385 15.627C54.6618 15.3634 54.5677 15.0536 54.5682 14.7367V4.29494C54.5682 3.8708 54.7376 3.46403 55.039 3.16411C55.3404 2.8642 55.7492 2.69571 56.1754 2.69571C56.6017 2.69571 57.0105 2.8642 57.3119 3.16411C57.6133 3.46403 57.7826 3.8708 57.7826 4.29494V14.724C57.7854 14.9352 57.7457 15.1448 57.6659 15.3404C57.5861 15.5361 57.4678 15.7139 57.318 15.8635C57.169 16.0142 56.9912 16.1336 56.7949 16.2146C56.5986 16.2958 56.3881 16.3379 56.1754 16.3384Z" fill="white"/>
<path d="M16.5035 53.5603H72.3615V54.8235C72.3615 55.5212 71.7932 56.0868 71.092 56.0868H17.773C17.0719 56.0868 16.5035 55.5212 16.5035 54.8235V53.5603Z" fill="white"/>
<path d="M70.0764 38.0228C70.0764 37.3949 70.588 36.8859 71.219 36.8859C71.85 36.8859 72.3615 37.3949 72.3615 38.0228V54.1919C72.3615 54.8198 71.85 55.3288 71.219 55.3288C70.588 55.3288 70.0764 54.8198 70.0764 54.1919V38.0228Z" fill="white"/>
<path d="M16.5035 38.0228C16.5035 37.3949 17.015 36.8859 17.6461 36.8859C18.2771 36.8859 18.7886 37.3949 18.7886 38.0228V53.9393C18.7886 54.5672 18.2771 55.0762 17.6461 55.0762C17.015 55.0762 16.5035 54.5672 16.5035 53.9393V38.0228Z" fill="white"/>
<path d="M48.7489 41.4335C48.7489 40.8753 49.2036 40.4229 49.7645 40.4229H50.0184C50.5793 40.4229 51.034 40.8753 51.034 41.4335V54.0656C51.034 54.6237 50.5793 55.0762 50.0184 55.0762H49.7645C49.2036 55.0762 48.7489 54.6237 48.7489 54.0656V41.4335Z" fill="white"/>
<path d="M37.8311 41.4335C37.8311 40.8753 38.2858 40.4229 38.8467 40.4229H39.1006C39.6615 40.4229 40.1162 40.8753 40.1162 41.4335V54.0656C40.1162 54.6237 39.6615 55.0762 39.1006 55.0762H38.8467C38.2858 55.0762 37.8311 54.6237 37.8311 54.0656V41.4335Z" fill="white"/>
<path d="M39.1006 40.4229H50.2723V42.6967H39.1006V40.4229Z" fill="white"/>
<rect x="53.6975" y="40.3318" width="6.80672" height="2.2616" fill="white"/>
<rect x="53.6975" y="43.3473" width="6.80672" height="2.2616" fill="white"/>
<rect x="61.2605" y="43.3473" width="6.80672" height="2.2616" fill="white"/>
<rect x="61.2605" y="40.3318" width="6.80672" height="2.2616" fill="white"/>
<rect x="20.4202" y="40.3318" width="6.80672" height="2.2616" fill="white"/>
<rect x="20.4202" y="43.3473" width="6.80672" height="2.2616" fill="white"/>
<rect x="27.9832" y="43.3473" width="6.80672" height="2.2616" fill="white"/>
<rect x="27.9832" y="40.3318" width="6.80672" height="2.2616" fill="white"/>
</g>
<defs>
<clipPath id="clip0_33_9">
<rect width="90" height="73.125" fill="white"/>
</clipPath>
</defs>
</svg>
