<svg width="40" height="40" viewBox="0 0 40 40" fill="none" xmlns="http://www.w3.org/2000/svg">
<g clip-path="url(#clip0_111_68)">
<path d="M30 0H10C7.34784 0 4.8043 1.05357 2.92893 2.92893C1.05357 4.8043 0 7.34784 0 10L0 30C0 32.6522 1.05357 35.1957 2.92893 37.0711C4.8043 38.9464 7.34784 40 10 40H30C32.6522 40 35.1957 38.9464 37.0711 37.0711C38.9464 35.1957 40 32.6522 40 30V10C40 7.34784 38.9464 4.8043 37.0711 2.92893C35.1957 1.05357 32.6522 0 30 0ZM38.125 30C38.1225 32.1541 37.2657 34.2193 35.7425 35.7425C34.2193 37.2657 32.1541 38.1225 30 38.125H10C7.84588 38.1225 5.78069 37.2657 4.2575 35.7425C2.7343 34.2193 1.87748 32.1541 1.875 30V10C1.87748 7.84588 2.7343 5.78069 4.2575 4.2575C5.78069 2.7343 7.84588 1.87748 10 1.875H30C32.1541 1.87748 34.2193 2.7343 35.7425 4.2575C37.2657 5.78069 38.1225 7.84588 38.125 10V30Z" fill="#E0E0E0"/>
<path d="M28.4375 27.1112L12.8887 11.5625H19.0394V9.6875H9.6875V19.0394H11.5625V12.8881L27.1119 28.4375H20.9606V30.3125H30.3125V20.9606H28.4375V27.1112Z" fill="#E0E0E0"/>
</g>
<defs>
<clipPath id="clip0_111_68">
<rect width="40" height="40" fill="white"/>
</clipPath>
</defs>
</svg>
